<?xml version="1.0" standalone="no"?>
<!DOCTYPE svg PUBLIC "-//W3C//DTD SVG 20010904//EN"
 "http://www.w3.org/TR/2001/REC-SVG-20010904/DTD/svg10.dtd">
<svg version="1.0" xmlns="http://www.w3.org/2000/svg"
 width="696.000000pt" height="696.000000pt" viewBox="0 0 696.000000 696.000000"
 preserveAspectRatio="xMidYMid meet">
<metadata>
Created by potrace 1.14, written by Peter Selinger 2001-2017
</metadata>
<g transform="translate(0.000000,696.000000) scale(0.100000,-0.100000)"
fill="#000000" stroke="none">
<path d="M3635 6883 c-94 -56 -544 -316 -670 -388 -23 -13 -124 -72 -225 -131
-102 -59 -194 -112 -205 -118 -26 -14 -805 -464 -825 -477 -8 -5 -157 -90
-330 -190 -173 -100 -394 -227 -490 -283 -96 -55 -184 -106 -195 -111 -20 -10
-20 -21 -22 -1030 l-3 -1020 23 -11 c24 -11 226 -117 322 -169 33 -18 110 -58
170 -90 114 -59 229 -120 350 -185 39 -21 115 -61 170 -90 55 -29 132 -70 170
-90 69 -37 174 -92 330 -175 189 -100 265 -140 340 -180 100 -53 919 -486
1075 -568 63 -33 120 -64 126 -68 6 -5 45 11 95 40 46 26 104 59 129 73 54 30
73 41 255 145 77 44 156 89 175 99 19 11 67 38 105 61 182 107 549 313 560
313 6 0 37 -16 69 -35 32 -19 60 -35 62 -35 2 0 33 -18 69 -40 36 -22 67 -40
70 -40 2 0 32 -17 67 -37 72 -43 119 -69 200 -114 32 -17 56 -35 53 -39 -3 -5
-191 -117 -280 -166 -11 -6 -76 -44 -145 -84 -69 -40 -143 -83 -165 -95 -22
-13 -123 -71 -225 -130 -102 -59 -210 -121 -240 -138 -30 -16 -66 -38 -80 -47
-14 -9 -52 -31 -85 -50 -72 -40 -55 -30 -398 -228 l-278 -161 -52 28 c-29 15
-97 52 -152 81 -55 29 -127 67 -160 85 -33 18 -105 56 -160 85 -98 52 -174 92
-317 169 -79 42 -186 98 -343 181 -55 29 -122 65 -150 80 -27 15 -93 50 -145
77 -52 28 -275 146 -495 263 -449 238 -529 281 -665 353 -52 27 -122 64 -155
82 -33 18 -113 60 -178 94 l-117 62 0 -399 0 -399 48 -25 c26 -14 81 -44 122
-65 41 -22 118 -63 170 -90 52 -28 136 -72 185 -98 50 -26 113 -60 140 -75 28
-15 113 -60 190 -100 77 -40 154 -80 170 -90 17 -10 80 -43 140 -75 119 -62
239 -126 350 -185 39 -21 108 -58 155 -82 219 -116 290 -153 355 -188 126 -68
218 -117 315 -167 323 -170 504 -267 655 -348 33 -18 69 -35 81 -39 16 -5 82
28 260 130 131 75 257 146 279 159 22 12 117 66 210 120 94 54 190 109 214
123 25 13 124 70 220 125 97 55 196 111 221 125 40 22 248 141 292 167 9 6 34
19 55 31 32 18 647 368 791 451 l42 24 -2 436 -3 436 -195 113 c-107 62 -216
124 -242 138 -26 14 -60 34 -77 44 l-29 18 273 154 274 155 1 422 0 421 -42
25 c-24 14 -59 34 -78 44 -20 11 -92 53 -160 93 -69 40 -145 84 -170 98 -25
14 -155 89 -290 167 -135 78 -438 254 -675 390 -236 137 -542 314 -680 393
-137 80 -266 154 -285 165 -19 11 -70 40 -113 64 l-78 45 -147 -85 c-81 -46
-163 -94 -182 -106 -19 -11 -42 -24 -50 -28 -8 -4 -122 -69 -255 -146 -132
-76 -323 -186 -425 -244 -102 -58 -192 -112 -200 -119 -13 -11 -15 -70 -15
-428 0 -261 4 -419 10 -425 6 -5 33 -21 60 -35 28 -15 57 -31 65 -36 29 -19
165 -96 180 -103 8 -4 31 -17 50 -28 19 -12 118 -69 220 -127 102 -57 410
-233 685 -390 275 -157 517 -295 538 -306 20 -11 37 -23 37 -27 0 -4 -12 -14
-27 -22 -25 -12 -145 -82 -429 -248 -55 -32 -106 -59 -113 -59 -7 0 -61 25
-119 56 -59 32 -138 74 -177 94 -223 118 -314 167 -350 186 -22 13 -62 34 -90
48 -27 14 -108 56 -180 95 -71 38 -159 85 -195 103 -57 30 -398 211 -625 333
-44 24 -115 61 -157 84 -43 23 -113 59 -155 82 -43 23 -130 68 -193 102 -63
33 -117 62 -119 63 -9 7 -4 1165 5 1173 5 5 25 18 44 29 19 10 123 70 230 132
107 62 209 120 225 130 42 24 357 206 430 248 33 19 74 42 90 52 358 205 781
450 820 474 27 17 52 31 55 31 3 0 16 8 30 17 22 14 153 90 260 150 19 11 65
38 103 60 l67 39 513 -292 c281 -161 644 -369 806 -461 161 -92 298 -168 302
-168 5 0 9 -5 9 -12 0 -6 3 -8 7 -5 3 4 13 1 22 -6 9 -8 72 -45 141 -84 163
-92 196 -111 250 -141 25 -13 50 -28 55 -32 6 -4 46 -28 90 -52 44 -25 96 -54
115 -65 131 -75 252 -143 256 -143 2 0 4 184 4 410 l0 409 -92 54 c-51 30
-194 113 -318 184 -124 71 -360 208 -525 303 -165 95 -401 232 -525 303 -124
71 -238 137 -255 147 -38 22 -670 387 -710 410 -16 9 -54 31 -83 49 -29 17
-58 31 -65 30 -7 0 -61 -30 -122 -66z m435 -2608 c157 -89 301 -172 320 -183
19 -11 127 -72 240 -137 113 -64 223 -128 245 -140 22 -13 119 -68 215 -124
96 -55 252 -145 347 -198 95 -54 169 -100 165 -104 -4 -3 -27 -17 -52 -30 -25
-13 -47 -27 -50 -30 -3 -3 -12 -8 -20 -12 -8 -3 -107 -60 -220 -125 l-205
-119 -35 22 c-19 12 -82 49 -140 82 -58 33 -150 86 -205 118 -139 81 -541 313
-594 343 -24 13 -103 59 -175 101 -73 43 -138 80 -146 84 -8 4 -28 15 -45 26
-16 10 -46 27 -65 38 -118 68 -425 245 -428 248 -1 1 10 8 25 16 16 8 96 54
178 103 83 49 191 113 240 143 50 29 97 51 105 48 8 -4 143 -80 300 -170z"/>
</g>
</svg>
